<?xml version="1.0" encoding="UTF-8"?>
<svg id="Camada_1" data-name="Camada 1" xmlns="http://www.w3.org/2000/svg" viewBox="0 0 1920 1080">
  <defs>
    <style>
      .cls-1 {
        fill: #fff;
      }
    </style>
  </defs>
  <path class="cls-1" d="M969.12,361.89c32.15.43,62.09,8.57,89.81,24.44,27.7,15.87,49.6,37.76,65.69,65.69l28.56-16.5c-19.04-32.58-44.97-58.39-77.75-77.43-32.79-19.04-68.23-28.56-106.31-28.56s-74.04,9.52-106.62,28.56c-32.59,19.04-58.4,44.85-77.43,77.43-19.04,32.59-28.56,68.13-28.56,106.63s9.52,74.05,28.56,106.63c19.04,32.59,44.85,58.39,77.43,77.43,32.58,19.04,68.12,28.56,106.62,28.56s73.52-9.52,106.31-28.56c32.78-19.04,58.71-45.06,77.75-78.06l-28.56-15.87c-16.09,27.51-37.99,49.3-65.69,65.37-27.72,16.08-57.66,24.12-89.81,24.12-49.5,0-91.82-17.55-126.93-52.68-35.13-35.12-52.69-77.43-52.69-126.94s17.56-91.81,52.69-126.94c35.11-35.12,77.43-52.89,126.93-53.31Z"/>
  <path class="cls-1" d="M552.09,363.51c-51.2,22.43-94.57,52.79-130.11,91.08-35.54,38.3-63.47,83.46-83.78,135.51-20.31,52.04-30.46,107.06-30.46,165.02h33c0-52.04,8.78-101.44,26.34-148.2,17.56-46.75,41.78-87.68,72.67-122.82,30.88-35.12,68.87-63.47,113.93-85.05,45.06-21.58,93.82-33.64,146.3-36.18v281.8h-179.62v33.01h179.62v77.43h33v-425.24h-16.5c-58.39,0-113.2,11.21-164.38,33.64Z"/>
  <path class="cls-1" d="M1612.06,744.64v-419.75h-33.01v257.46c-20.06-49.23-47.02-92.24-81.03-128.89-35.54-38.29-78.91-68.65-130.11-91.08-51.19-22.42-105.99-33.64-164.38-33.64h-16.5v425.24h33v-392.24c52.47,2.54,101.23,14.6,146.3,36.18,45.06,21.58,83.05,49.93,113.93,85.05,30.89,35.13,55.12,76.07,72.67,122.82,16.45,43.8,25.09,89.94,26.13,138.38v2.29h.05c.04,2.51.16,5,.16,7.53h33c0-3.13-.15-6.22-.21-9.34Z"/>
</svg>